<?xml version="1.0" encoding="UTF-8" standalone="no"?>
<svg
   height="383.5975"
   id="svg3430"
   version="1.1"
   viewBox="0 0 711.20123 383.5975"
   width="711.20123"
   xml:space="preserve"
   sodipodi:docname="library-logo.svg"
   inkscape:version="1.4 (e7c3feb100, 2024-10-09)"
   inkscape:export-filename="library-logo.png"
   inkscape:export-xdpi="96"
   inkscape:export-ydpi="96"
   xmlns:inkscape="http://www.inkscape.org/namespaces/inkscape"
   xmlns:sodipodi="http://sodipodi.sourceforge.net/DTD/sodipodi-0.dtd"
   xmlns:xlink="http://www.w3.org/1999/xlink"
   xmlns="http://www.w3.org/2000/svg"
   xmlns:svg="http://www.w3.org/2000/svg"
   xmlns:rdf="http://www.w3.org/1999/02/22-rdf-syntax-ns#"
   xmlns:cc="http://creativecommons.org/ns#"
   xmlns:dc="http://purl.org/dc/elements/1.1/"><sodipodi:namedview
   pagecolor="#ffffff"
   bordercolor="#666666"
   borderopacity="1"
   objecttolerance="10"
   gridtolerance="10"
   guidetolerance="10"
   inkscape:pageopacity="0"
   inkscape:pageshadow="2"
   inkscape:window-width="1920"
   inkscape:window-height="1164"
   id="namedview41"
   showgrid="false"
   inkscape:snap-to-guides="false"
   inkscape:snap-center="true"
   inkscape:zoom="1.5902085"
   inkscape:cx="355.29932"
   inkscape:cy="190.85548"
   inkscape:window-x="0"
   inkscape:window-y="0"
   inkscape:window-maximized="1"
   inkscape:current-layer="svg3430"
   inkscape:document-rotation="0"
   inkscape:showpageshadow="2"
   inkscape:pagecheckerboard="0"
   inkscape:deskcolor="#d1d1d1"
   showguides="false" />
  <title
   id="title3510">Official PHP Logo</title>
  <metadata
   id="metadata3436">
    <rdf:RDF>
      <cc:Work
   rdf:about="">
        <dc:format>image/svg+xml</dc:format>
        <dc:type
   rdf:resource="http://purl.org/dc/dcmitype/StillImage" />
        <dc:title>Official PHP Logo</dc:title>
        <dc:creator>
          <cc:Agent>
            <dc:title>Colin Viebrock</dc:title>
          </cc:Agent>
        </dc:creator>
        <dc:description />
        <dc:contributor>
          <cc:Agent>
            <dc:title />
          </cc:Agent>
        </dc:contributor>
        <cc:license
   rdf:resource="http://creativecommons.org/licenses/by-sa/3.0/" />
        <dc:rights>
          <cc:Agent>
            <dc:title>Copyright Colin Viebrock 1997 - All rights reserved.</dc:title>
          </cc:Agent>
        </dc:rights>
        <dc:date>1997</dc:date>
      </cc:Work>
      <cc:License
   rdf:about="http://creativecommons.org/licenses/by-sa/3.0/">
        <cc:permits
   rdf:resource="http://creativecommons.org/ns#Reproduction" />
        <cc:permits
   rdf:resource="http://creativecommons.org/ns#Distribution" />
        <cc:requires
   rdf:resource="http://creativecommons.org/ns#Notice" />
        <cc:requires
   rdf:resource="http://creativecommons.org/ns#Attribution" />
        <cc:permits
   rdf:resource="http://creativecommons.org/ns#DerivativeWorks" />
        <cc:requires
   rdf:resource="http://creativecommons.org/ns#ShareAlike" />
      </cc:License>
    </rdf:RDF>
  </metadata>
  <defs
   id="defs3434"><rect
   x="139.90817"
   y="-11.91181"
   width="51.728151"
   height="43.214901"
   id="rect189" />
    <clipPath
   clipPathUnits="userSpaceOnUse"
   id="clipPath3444">
      <path
   d="M 11.52,162 C 11.52,81.677 135.307,16.561 288,16.561 l 0,0 c 152.693,0 276.481,65.116 276.481,145.439 l 0,0 c 0,80.322 -123.788,145.439 -276.481,145.439 l 0,0 C 135.307,307.439 11.52,242.322 11.52,162"
   id="path3446" />
    </clipPath>
    <radialGradient
   cx="0"
   cy="0"
   fx="0"
   fy="0"
   gradientTransform="matrix(363.05789,0,0,-363.05789,177.52002,256.30713)"
   gradientUnits="userSpaceOnUse"
   id="radialGradient3452"
   r="1"
   spreadMethod="pad">
      <stop
   id="stop3454"
   offset="0"
   style="stop-opacity:1;stop-color:#aeb2d5" />
      <stop
   id="stop3456"
   offset="0.3"
   style="stop-opacity:1;stop-color:#aeb2d5" />
      <stop
   id="stop3458"
   offset="0.75"
   style="stop-opacity:1;stop-color:#484c89" />
      <stop
   id="stop3460"
   offset="1"
   style="stop-opacity:1;stop-color:#484c89" />
    </radialGradient>
    <clipPath
   clipPathUnits="userSpaceOnUse"
   id="clipPath3468">
      <path
   d="M 0,324 576,324 576,0 0,0 0,324 Z"
   id="path3470" />
    </clipPath>
    <clipPath
   clipPathUnits="userSpaceOnUse"
   id="clipPath3480">
      <path
   d="M 0,324 576,324 576,0 0,0 0,324 Z"
   id="path3482" />
    </clipPath>
  
    
    
    
  <linearGradient
   inkscape:collect="always"
   xlink:href="#linearGradient4689"
   id="linearGradient1478"
   gradientUnits="userSpaceOnUse"
   gradientTransform="matrix(0.562541,0,0,0.567972,-9.399749,-5.305317)"
   x1="26.648937"
   y1="20.603781"
   x2="135.66525"
   y2="114.39767" /><linearGradient
   id="linearGradient4689"><stop
     style="stop-color:#5a9fd4;stop-opacity:1;"
     offset="0"
     id="stop4691" /><stop
     style="stop-color:#306998;stop-opacity:1;"
     offset="1"
     id="stop4693" /></linearGradient><linearGradient
   inkscape:collect="always"
   xlink:href="#linearGradient4671"
   id="linearGradient1475"
   gradientUnits="userSpaceOnUse"
   gradientTransform="matrix(0.562541,0,0,0.567972,-9.399749,-5.305317)"
   x1="150.96111"
   y1="192.35176"
   x2="112.03144"
   y2="137.27299" /><linearGradient
   id="linearGradient4671"><stop
     style="stop-color:#ffd43b;stop-opacity:1;"
     offset="0"
     id="stop4673" /><stop
     style="stop-color:#ffe873;stop-opacity:1"
     offset="1"
     id="stop4675" /></linearGradient><radialGradient
   inkscape:collect="always"
   xlink:href="#linearGradient2795"
   id="radialGradient1480"
   gradientUnits="userSpaceOnUse"
   gradientTransform="matrix(2.382716e-8,-0.296405,1.43676,4.683673e-7,-128.544,150.5202)"
   cx="61.518883"
   cy="132.28575"
   fx="61.518883"
   fy="132.28575"
   r="29.036913" /><linearGradient
   id="linearGradient2795"><stop
     style="stop-color:#b8b8b8;stop-opacity:0.49803922;"
     offset="0"
     id="stop2797" /><stop
     style="stop-color:#7f7f7f;stop-opacity:0;"
     offset="1"
     id="stop2799" /></linearGradient></defs>
  
<text
   xml:space="preserve"
   id="text187"
   style="font-style:normal;font-weight:normal;font-size:40px;line-height:1.25;font-family:sans-serif;white-space:pre;shape-inside:url(#rect189);display:inline;fill:#000000;fill-opacity:1;stroke:none" /><g
   id="g3"
   transform="translate(-19.808726)"><g
     id="g204"
     transform="translate(-73.409161,-2.9179462)"><g
       id="g125"
       transform="matrix(16.970019,0,0,16.970019,667.35816,-2336.005)"><path
         inkscape:connector-curvature="0"
         id="path76"
         style="fill:#ffed00;fill-opacity:1;fill-rule:nonzero;stroke:none;stroke-width:0.352778"
         d="m -28.241837,155.73873 h 13.51104 V 142.2277 h -13.51104 z" /><path
         inkscape:connector-curvature="0"
         id="path78"
         style="fill:#ffed00;fill-opacity:1;fill-rule:nonzero;stroke:none;stroke-width:0.352778"
         d="m -28.416457,155.56375 h 13.56924 v -13.39462 h -13.56924 z" /><path
         inkscape:connector-curvature="0"
         id="path96"
         style="fill:#000000;fill-opacity:1;fill-rule:nonzero;stroke:none;stroke-width:0.352778"
         d="m -28.513404,141.96375 h 13.975997 l 7.05e-4,13.98658 -13.976349,-0.006 z m 0.37465,13.595 13.196711,0.004 0.01094,-13.20483 -13.209058,-0.001 z" /><path
         d="m -21.54696,150.63831 4.206875,4.197 1.647119,-1.64606 -4.211461,-4.20794 0.820914,-0.81421 v -1.63724 l 0.585258,-0.58526 0.0014,1.35855 0.571852,0.56268 2.054225,-2.05634 0.555273,0.54892 c 0,-0.35348 -0.104423,-1.57021 -1.081264,-2.52271 -1.094317,-1.0668 -2.189339,-0.44274 -2.566811,-0.066 l -1.98367,1.98402 0.493536,0.49248 -1.093258,1.08973 -1.091847,-1.08973 0.493183,-0.49248 -1.983316,-1.98402 c -0.377473,-0.37677 -1.472495,-1.00083 -2.567164,0.0663 -0.976489,0.95215 -1.058334,2.16958 -1.058334,2.52271 l 0.532695,-0.54927 2.053872,2.05634 0.572558,-0.56974 3.53e-4,-1.35149 0.585258,0.58526 -0.0011,1.63336 0.822325,0.81809 -4.169128,4.16525 1.645003,1.64218 z"
         style="fill:#000000;fill-opacity:1;fill-rule:nonzero;stroke:none;stroke-width:0.352778"
         id="path106"
         inkscape:connector-curvature="0" /></g><text
       xml:space="preserve"
       style="font-style:normal;font-weight:normal;font-size:40px;line-height:1.25;font-family:sans-serif;fill:#000000;fill-opacity:1;stroke:none"
       x="436.23837"
       y="106.71086"
       id="text188"><tspan
         sodipodi:role="line"
         id="tspan186"
         x="436.23837"
         y="106.71086">unofficial</tspan><tspan
         sodipodi:role="line"
         x="436.23837"
         y="156.71086"
         id="tspan185">API</tspan><tspan
         sodipodi:role="line"
         x="436.23837"
         y="206.71086"
         id="tspan190">client</tspan><tspan
         sodipodi:role="line"
         x="436.23837"
         y="256.71088"
         id="tspan192">Library</tspan><tspan
         sodipodi:role="line"
         x="436.23837"
         y="306.71088"
         id="tspan194">for Python</tspan></text></g><g
     id="g1"
     transform="translate(523.98997,115.23294)"><g
       id="g2"><path
         style="fill:url(#linearGradient1478);fill-opacity:1"
         d="m 60.510156,6.3979729 c -4.583653,0.021298 -8.960939,0.4122177 -12.8125,1.09375 C 36.35144,9.4962267 34.291407,13.691825 34.291406,21.429223 v 10.21875 h 26.8125 v 3.40625 h -26.8125 -10.0625 c -7.792459,0 -14.6157592,4.683717 -16.7500002,13.59375 -2.46182,10.212966 -2.5710151,16.586023 0,27.25 1.9059283,7.937852 6.4575432,13.593748 14.2500002,13.59375 h 9.21875 v -12.25 c 0,-8.849902 7.657144,-16.656248 16.75,-16.65625 h 26.78125 c 7.454951,0 13.406253,-6.138164 13.40625,-13.625 v -25.53125 c 0,-7.266339 -6.12998,-12.7247775 -13.40625,-13.9375001 -4.605987,-0.7667253 -9.385097,-1.1150483 -13.96875,-1.09375 z m -14.5,8.2187501 c 2.769547,0 5.03125,2.298646 5.03125,5.125 -2e-6,2.816336 -2.261703,5.09375 -5.03125,5.09375 -2.779476,-1e-6 -5.03125,-2.277415 -5.03125,-5.09375 -1e-6,-2.826353 2.251774,-5.125 5.03125,-5.125 z"
         id="path1948" /><path
         style="fill:url(#linearGradient1475);fill-opacity:1"
         d="m 91.228906,35.054223 v 11.90625 c 0,9.230755 -7.825895,16.999999 -16.75,17 h -26.78125 c -7.335833,0 -13.406249,6.278483 -13.40625,13.625 v 25.531247 c 0,7.26634 6.318588,11.54032 13.40625,13.625 8.487331,2.49561 16.626237,2.94663 26.78125,0 6.750155,-1.95439 13.406253,-5.88761 13.40625,-13.625 V 92.897973 h -26.78125 v -3.40625 h 26.78125 13.406254 c 7.79246,0 10.69625,-5.435408 13.40624,-13.59375 2.79933,-8.398886 2.68022,-16.475776 0,-27.25 -1.92578,-7.757441 -5.60387,-13.59375 -13.40624,-13.59375 z m -15.0625,64.65625 c 2.779478,3e-6 5.03125,2.277417 5.03125,5.093747 -2e-6,2.82635 -2.251775,5.125 -5.03125,5.125 -2.76955,0 -5.03125,-2.29865 -5.03125,-5.125 2e-6,-2.81633 2.261697,-5.093747 5.03125,-5.093747 z"
         id="path1950" /><ellipse
         style="opacity:0.44382;fill:url(#radialGradient1480);fill-opacity:1;fill-rule:nonzero;stroke:none;stroke-width:20;stroke-miterlimit:4;stroke-dasharray:none;stroke-opacity:1"
         id="path1894"
         transform="matrix(0.73406,0,0,0.809524,16.24958,27.00935)"
         cx="61.518883"
         cy="132.28575"
         rx="48.948284"
         ry="8.6066771" /></g></g></g></svg>
